<svg width="22" height="22" viewBox="0 0 22 22" fill="none" xmlns="http://www.w3.org/2000/svg">
<path d="M16 5.28596H17.4286M6.71429 1.00024H15.2857C16.8012 1.00024 18.2547 1.60228 19.3263 2.67392C20.398 3.74556 21 5.19901 21 6.71453V15.286C21 16.8015 20.398 18.2549 19.3263 19.3266C18.2547 20.3982 16.8012 21.0002 15.2857 21.0002H6.71429C5.19876 21.0002 3.74531 20.3982 2.67368 19.3266C1.60204 18.2549 1 16.8015 1 15.286V6.71453C1 5.19901 1.60204 3.74556 2.67368 2.67392C3.74531 1.60228 5.19876 1.00024 6.71429 1.00024ZM11 15.286C9.86336 15.286 8.77327 14.8344 7.96954 14.0307C7.16582 13.227 6.71429 12.1369 6.71429 11.0002C6.71429 9.8636 7.16582 8.77351 7.96954 7.96979C8.77327 7.16606 9.86336 6.71453 11 6.71453C12.1366 6.71453 13.2267 7.16606 14.0305 7.96979C14.8342 8.77351 15.2857 9.8636 15.2857 11.0002C15.2857 12.1369 14.8342 13.227 14.0305 14.0307C13.2267 14.8344 12.1366 15.286 11 15.286Z" stroke="#EBECED" stroke-width="1.6"/>
</svg>
