<svg width="21" height="21" viewBox="0 0 21 21" fill="none" xmlns="http://www.w3.org/2000/svg">
<path d="M19 13.5126L14.5853 11.5335L14.5684 11.526C14.2815 11.4023 13.9681 11.3525 13.6569 11.3812C13.3458 11.4098 13.0467 11.516 12.7872 11.6901C12.7508 11.7144 12.7158 11.7407 12.6822 11.7688L10.5906 13.5501C9.37188 12.8891 8.11282 11.6404 7.45094 10.4366L9.23782 8.31226C9.26654 8.27798 9.29316 8.24197 9.31751 8.20445C9.48699 7.94585 9.58989 7.64934 9.61704 7.34134C9.64419 7.03334 9.59476 6.72341 9.47313 6.43914C9.47024 6.43369 9.46774 6.42806 9.46563 6.42226L7.48751 2.00008C7.32513 1.63025 7.04801 1.32253 6.69716 1.12245C6.3463 0.922374 5.94035 0.840567 5.53938 0.889139C4.17848 1.06791 2.92918 1.73596 2.02482 2.7685C1.12046 3.80105 0.62288 5.12748 0.625007 6.50008C0.625007 14.151 6.84907 20.3751 14.5 20.3751C15.8726 20.3772 17.199 19.8796 18.2316 18.9753C19.2641 18.0709 19.9322 16.8216 20.1109 15.4607C20.1595 15.0597 20.0777 14.6538 19.8776 14.3029C19.6775 13.9521 19.3698 13.6749 19 13.5126ZM14.5 18.1251C11.418 18.1214 8.4633 16.8954 6.284 14.7161C4.1047 12.5368 2.87873 9.58208 2.87501 6.50008C2.87286 5.72335 3.13655 4.96928 3.62227 4.36316C4.10799 3.75703 4.78648 3.33536 5.54501 3.1682L7.30938 7.1057L5.51313 9.24508C5.4841 9.27968 5.45717 9.31599 5.43251 9.35383C5.25546 9.62435 5.15137 9.93605 5.13034 10.2587C5.10932 10.5813 5.17207 10.9039 5.31251 11.1951C6.19563 13.0026 8.01532 14.8101 9.84157 15.6951C10.1347 15.8341 10.4589 15.8946 10.7825 15.8708C11.106 15.8469 11.4179 15.7396 11.6875 15.5591C11.7238 15.5347 11.7585 15.5081 11.7916 15.4795L13.8944 13.6916L17.8319 15.4551C17.6647 16.2136 17.243 16.8921 16.6369 17.3778C16.0308 17.8635 15.2767 18.1272 14.5 18.1251Z" fill="#EBECED"/>
</svg>
